<?xml version="1.0" encoding="UTF-8"?>
<svg xmlns="http://www.w3.org/2000/svg" xmlns:xlink="http://www.w3.org/1999/xlink" width="800pt" height="460.486382pt" viewBox="0 0 800 460.486382" version="1.1">
<g id="surface1">
<path style=" stroke:none;fill-rule:nonzero;fill:rgb(0%,0%,0%);fill-opacity:1;" d="M 659.1875 260.351562 C 659.136719 256.300781 659.085938 252.25 659.03125 248.199219 C 678.484375 247.953125 697.9375 247.703125 717.390625 247.457031 C 719.386719 249.011719 721.382812 250.566406 723.378906 252.125 C 727.890625 271.050781 732.402344 289.972656 736.914062 308.898438 C 732.972656 309.835938 729.03125 310.777344 725.09375 311.714844 C 720.957031 294.367188 716.824219 277.019531 712.6875 259.671875 C 694.855469 259.898438 677.023438 260.125 659.1875 260.351562 Z M 674.128906 241.179688 C 674.078125 237.128906 674.027344 233.078125 673.972656 229.027344 C 712.878906 228.53125 751.785156 228.039062 790.691406 227.542969 C 790.742188 231.59375 790.792969 235.644531 790.847656 239.695312 C 773.925781 239.910156 757.003906 240.125 740.082031 240.339844 C 744.007812 256.800781 747.929688 273.261719 751.855469 289.722656 C 747.914062 290.660156 743.972656 291.601562 740.035156 292.539062 C 735.898438 275.191406 731.765625 257.84375 727.628906 240.496094 C 709.796875 240.722656 691.964844 240.949219 674.128906 241.175781 Z M 722.96875 219.296875 C 734.175781 204.917969 745.382812 190.539062 756.585938 176.160156 C 759.78125 178.652344 762.976562 181.140625 766.171875 183.632812 C 754.964844 198.011719 743.757812 212.390625 732.554688 226.769531 C 729.359375 224.277344 726.164062 221.789062 722.96875 219.296875 Z M 745.007812 217.210938 C 753.101562 206.828125 761.195312 196.441406 769.289062 186.058594 C 772.484375 188.550781 775.679688 191.039062 778.875 193.53125 C 770.78125 203.914062 762.6875 214.300781 754.59375 224.683594 C 751.398438 222.191406 748.203125 219.703125 745.007812 217.210938 Z M 745.007812 217.210938 "/>
<path style=" stroke:none;fill-rule:nonzero;fill:rgb(73.72549%,50.196078%,74.117647%);fill-opacity:1;" d="M 642.132812 262.464844 C 642.082031 258.414062 642.03125 254.363281 641.976562 250.3125 C 661.429688 250.066406 680.882812 249.816406 700.335938 249.570312 C 702.332031 251.125 704.328125 252.679688 706.324219 254.238281 C 710.835938 273.164062 715.347656 292.085938 719.859375 311.011719 C 715.917969 311.949219 711.976562 312.890625 708.039062 313.828125 C 703.902344 296.480469 699.769531 279.132812 695.632812 261.785156 C 677.800781 262.011719 659.96875 262.238281 642.132812 262.464844 Z M 657.074219 243.292969 C 657.023438 239.242188 656.972656 235.191406 656.917969 231.140625 C 695.824219 230.644531 734.730469 230.152344 773.636719 229.65625 C 773.6875 233.707031 773.738281 237.757812 773.792969 241.808594 C 756.871094 242.023438 739.949219 242.238281 723.027344 242.453125 C 726.953125 258.914062 730.875 275.375 734.800781 291.835938 C 730.859375 292.773438 726.917969 293.714844 722.980469 294.652344 C 718.84375 277.304688 714.710938 259.957031 710.574219 242.609375 C 692.742188 242.835938 674.910156 243.0625 657.074219 243.289062 Z M 705.910156 221.410156 C 717.117188 207.03125 728.324219 192.652344 739.527344 178.273438 C 742.722656 180.765625 745.917969 183.253906 749.113281 185.746094 C 737.90625 200.125 726.699219 214.503906 715.496094 228.882812 C 712.300781 226.390625 709.105469 223.902344 705.910156 221.410156 Z M 727.949219 219.328125 C 736.042969 208.945312 744.136719 198.558594 752.230469 188.175781 C 755.425781 190.667969 758.621094 193.15625 761.816406 195.648438 C 753.722656 206.03125 745.628906 216.417969 737.535156 226.800781 C 734.339844 224.308594 731.144531 221.820312 727.949219 219.328125 Z M 727.949219 219.328125 "/>
<path style=" stroke:none;fill-rule:nonzero;fill:rgb(0%,0%,0%);fill-opacity:1;" d="M 448.214844 356.167969 L 460.785156 362.582031 L 589.070312 111.136719 L 576.5 104.722656 Z M 448.214844 356.167969 "/>
<path style=" stroke:none;fill-rule:nonzero;fill:rgb(0%,0%,0%);fill-opacity:1;" d="M 467.074219 365.789062 L 479.644531 372.203125 L 607.929688 120.757812 L 595.359375 114.34375 Z M 467.074219 365.789062 "/>
<path style=" stroke:none;fill-rule:nonzero;fill:rgb(0%,0%,0%);fill-opacity:1;" d="M 485.929688 375.410156 L 498.5 381.824219 L 626.785156 130.378906 L 614.214844 123.964844 Z M 485.929688 375.410156 "/>
<path style=" stroke:none;fill-rule:nonzero;fill:rgb(74.509804%,72.941176%,85.490196%);fill-opacity:1;" d="M 463.402344 351.238281 L 475.972656 357.652344 L 604.257812 106.207031 L 591.6875 99.792969 Z M 463.402344 351.238281 "/>
<path style=" stroke:none;fill-rule:nonzero;fill:rgb(74.509804%,72.941176%,85.490196%);fill-opacity:1;" d="M 482.261719 360.859375 L 494.832031 367.273438 L 623.117188 115.828125 L 610.546875 109.414062 Z M 482.261719 360.859375 "/>
<path style=" stroke:none;fill-rule:nonzero;fill:rgb(74.509804%,72.941176%,85.490196%);fill-opacity:1;" d="M 501.121094 370.484375 L 513.691406 376.898438 L 641.976562 125.453125 L 629.40625 119.039062 Z M 501.121094 370.484375 "/>
<path style=" stroke:none;fill-rule:nonzero;fill:rgb(0%,0%,0%);fill-opacity:1;" d="M 448.214844 336.976562 L 432.386719 184.554688 L 308.300781 274.476562 Z M 448.214844 336.976562 "/>
<path style=" stroke:none;fill-rule:nonzero;fill:rgb(80%,92.156863%,77.254902%);fill-opacity:1;" d="M 437.894531 309.988281 L 422.066406 157.566406 L 297.980469 247.488281 Z M 437.894531 309.988281 "/>
<path style=" stroke:none;fill-rule:nonzero;fill:rgb(0%,0%,0%);fill-opacity:1;" d="M 271.890625 188.9375 C 245.902344 172.6875 211.660156 180.582031 195.410156 206.574219 C 179.160156 232.5625 187.054688 266.804688 213.046875 283.054688 C 239.035156 299.304688 273.277344 291.410156 289.527344 265.417969 C 305.777344 239.429688 297.882812 205.1875 271.890625 188.9375 Z M 271.890625 188.9375 "/>
<path style=" stroke:none;fill-rule:nonzero;fill:rgb(99.215686%,70.588235%,38.431373%);fill-opacity:1;" d="M 261.695312 191.289062 C 235.707031 175.039062 201.464844 182.933594 185.214844 208.925781 C 168.964844 234.914062 176.859375 269.15625 202.851562 285.40625 C 228.839844 301.65625 263.082031 293.761719 279.332031 267.769531 C 295.582031 241.78125 287.6875 207.539062 261.695312 191.289062 Z M 261.695312 191.289062 "/>
<path style=" stroke:none;fill-rule:nonzero;fill:rgb(0%,0%,0%);fill-opacity:1;" d="M 176.765625 20.464844 L 124.933594 9.148438 L 34.410156 423.808594 L 86.242188 435.125 Z M 176.765625 20.464844 "/>
<path style=" stroke:none;fill-rule:nonzero;fill:rgb(85.098039%,85.098039%,85.098039%);fill-opacity:1;" d="M 151.507812 36.671875 L 99.675781 25.355469 L 9.152344 440.015625 L 60.984375 451.332031 Z M 151.507812 36.671875 "/>
</g>
</svg>
