<?xml version="1.0" encoding="UTF-8"?>
<svg xmlns="http://www.w3.org/2000/svg" xmlns:xlink="http://www.w3.org/1999/xlink" width="800pt" height="292.457255pt" viewBox="0 0 800 292.457255" version="1.1">
<g id="surface1">
<path style=" stroke:none;fill-rule:nonzero;fill:rgb(0%,0%,0%);fill-opacity:1;" d="M 723.675781 112.453125 C 725.972656 111.480469 728.273438 110.511719 730.570312 109.539062 C 735.234375 120.578125 739.902344 131.617188 744.566406 142.65625 C 744.144531 144.15625 743.71875 145.65625 743.296875 147.15625 C 733.550781 154.132812 723.804688 161.105469 714.058594 168.082031 C 712.605469 166.050781 711.152344 164.023438 709.703125 161.992188 C 718.636719 155.597656 727.570312 149.203125 736.503906 142.808594 C 732.226562 132.6875 727.949219 122.570312 723.671875 112.449219 Z M 738.089844 116.519531 C 740.386719 115.546875 742.6875 114.578125 744.984375 113.605469 C 754.316406 135.683594 763.648438 157.761719 772.980469 179.839844 C 770.683594 180.8125 768.382812 181.78125 766.085938 182.753906 C 762.027344 173.152344 757.96875 163.546875 753.910156 153.945312 C 745.433594 160.011719 736.957031 166.082031 728.476562 172.148438 C 727.023438 170.117188 725.570312 168.089844 724.121094 166.058594 C 733.054688 159.664062 741.988281 153.269531 750.921875 146.875 C 746.644531 136.753906 742.367188 126.636719 738.089844 116.515625 Z M 761.929688 139.289062 C 772.738281 142.335938 783.546875 145.386719 794.355469 148.433594 C 793.679688 150.835938 793 153.238281 792.324219 155.640625 C 781.515625 152.59375 770.707031 149.542969 759.898438 146.496094 C 760.574219 144.09375 761.253906 141.691406 761.929688 139.289062 Z M 768.246094 151.375 C 776.050781 153.578125 783.859375 155.777344 791.664062 157.980469 C 790.988281 160.382812 790.308594 162.785156 789.632812 165.1875 C 781.828125 162.984375 774.019531 160.785156 766.214844 158.582031 C 766.890625 156.179688 767.570312 153.777344 768.246094 151.375 Z M 768.246094 151.375 "/>
<path style=" stroke:none;fill-rule:nonzero;fill:rgb(100%,92.941176%,43.529412%);fill-opacity:1;" d="M 718.503906 103.214844 C 720.800781 102.242188 723.101562 101.273438 725.398438 100.300781 C 730.0625 111.339844 734.730469 122.378906 739.394531 133.417969 C 738.972656 134.917969 738.546875 136.417969 738.125 137.917969 C 728.378906 144.894531 718.632812 151.867188 708.886719 158.84375 C 707.433594 156.8125 705.980469 154.785156 704.53125 152.753906 C 713.464844 146.359375 722.398438 139.964844 731.332031 133.570312 C 727.054688 123.449219 722.777344 113.332031 718.5 103.210938 Z M 732.914062 107.28125 C 735.210938 106.308594 737.511719 105.339844 739.808594 104.367188 C 749.140625 126.445312 758.472656 148.523438 767.804688 170.601562 C 765.507812 171.574219 763.207031 172.542969 760.910156 173.515625 C 756.851562 163.914062 752.792969 154.308594 748.734375 144.707031 C 740.257812 150.773438 731.78125 156.84375 723.300781 162.910156 C 721.847656 160.878906 720.394531 158.851562 718.945312 156.820312 C 727.878906 150.425781 736.8125 144.03125 745.746094 137.636719 C 741.46875 127.515625 737.191406 117.398438 732.914062 107.277344 Z M 756.757812 130.050781 C 767.566406 133.097656 778.375 136.148438 789.183594 139.195312 C 788.507812 141.597656 787.828125 144 787.152344 146.402344 C 776.34375 143.355469 765.535156 140.304688 754.726562 137.257812 C 755.402344 134.855469 756.082031 132.453125 756.757812 130.050781 Z M 763.070312 142.136719 C 770.875 144.339844 778.683594 146.539062 786.488281 148.742188 C 785.8125 151.144531 785.132812 153.546875 784.457031 155.949219 C 776.652344 153.746094 768.84375 151.546875 761.039062 149.34375 C 761.714844 146.941406 762.394531 144.539062 763.070312 142.136719 Z M 763.070312 142.136719 "/>
<path style=" stroke:none;fill-rule:nonzero;fill:rgb(0%,0%,0%);fill-opacity:1;" d="M 704.53125 156.792969 L 702.460938 142.289062 L 412.382812 183.703125 L 414.453125 198.207031 Z M 704.53125 156.792969 "/>
<path style=" stroke:none;fill-rule:nonzero;fill:rgb(0%,0%,0%);fill-opacity:1;" d="M 701.425781 135.035156 L 699.355469 120.53125 L 409.277344 161.945312 L 411.347656 176.449219 Z M 701.425781 135.035156 "/>
<path style=" stroke:none;fill-rule:nonzero;fill:rgb(0%,0%,0%);fill-opacity:1;" d="M 698.320312 113.28125 L 696.25 98.777344 L 406.171875 140.191406 L 408.242188 154.695312 Z M 698.320312 113.28125 "/>
<path style=" stroke:none;fill-rule:nonzero;fill:rgb(80%,92.156863%,77.254902%);fill-opacity:1;" d="M 691.273438 146.84375 L 689.203125 132.339844 L 399.125 173.753906 L 401.195312 188.257812 Z M 691.273438 146.84375 "/>
<path style=" stroke:none;fill-rule:nonzero;fill:rgb(80%,92.156863%,77.254902%);fill-opacity:1;" d="M 688.164062 125.089844 L 686.09375 110.585938 L 396.015625 152 L 398.085938 166.503906 Z M 688.164062 125.089844 "/>
<path style=" stroke:none;fill-rule:nonzero;fill:rgb(80%,92.156863%,77.254902%);fill-opacity:1;" d="M 685.058594 103.332031 L 682.988281 88.828125 L 392.910156 130.242188 L 394.980469 144.746094 Z M 685.058594 103.332031 "/>
<path style=" stroke:none;fill-rule:nonzero;fill:rgb(0%,0%,0%);fill-opacity:1;" d="M 285.015625 162.304688 L 375.871094 172.421875 L 339.207031 88.679688 Z M 285.015625 162.304688 "/>
<path style=" stroke:none;fill-rule:nonzero;fill:rgb(70.196078%,87.058824%,41.176471%);fill-opacity:1;" d="M 302.058594 159.714844 L 392.914062 169.832031 L 356.25 86.089844 Z M 302.058594 159.714844 "/>
<path style=" stroke:none;fill-rule:nonzero;fill:rgb(0%,0%,0%);fill-opacity:1;" d="M 189.992188 239.699219 C 238.964844 236.964844 276.445312 195.046875 273.710938 146.078125 C 270.976562 97.105469 229.058594 59.625 180.089844 62.359375 C 131.117188 65.09375 93.636719 107.011719 96.371094 155.980469 C 99.105469 204.953125 141.023438 242.433594 189.992188 239.699219 Z M 189.992188 239.699219 "/>
<path style=" stroke:none;fill-rule:nonzero;fill:rgb(50.196078%,69.411765%,82.745098%);fill-opacity:1;" d="M 201.15625 227.214844 C 250.128906 224.480469 287.609375 182.5625 284.875 133.59375 C 282.140625 84.621094 240.222656 47.140625 191.253906 49.875 C 142.28125 52.609375 104.800781 94.527344 107.535156 143.496094 C 110.269531 192.46875 152.1875 229.949219 201.15625 227.214844 Z M 201.15625 227.214844 "/>
<path style=" stroke:none;fill-rule:nonzero;fill:rgb(0%,0%,0%);fill-opacity:1;" d="M 53.128906 286.8125 L 85.613281 280.878906 L 38.128906 21.011719 L 5.644531 26.945312 Z M 53.128906 286.8125 "/>
<path style=" stroke:none;fill-rule:nonzero;fill:rgb(73.72549%,50.196078%,74.117647%);fill-opacity:1;" d="M 63.746094 271.445312 L 96.230469 265.511719 L 48.746094 5.644531 L 16.261719 11.578125 Z M 63.746094 271.445312 "/>
</g>
</svg>
