<?xml version="1.0" encoding="UTF-8"?>
<svg xmlns="http://www.w3.org/2000/svg" xmlns:xlink="http://www.w3.org/1999/xlink" width="800pt" height="327.781472pt" viewBox="0 0 800 327.781472" version="1.1">
<g id="surface1">
<path style=" stroke:none;fill-rule:nonzero;fill:rgb(0%,0%,0%);fill-opacity:1;" d="M 728.671875 142.109375 C 731.015625 141.457031 733.359375 140.808594 735.703125 140.15625 C 738.828125 151.410156 741.949219 162.664062 745.074219 173.917969 C 744.476562 175.316406 743.878906 176.710938 743.28125 178.109375 C 732.988281 183.628906 722.695312 189.144531 712.402344 194.664062 C 711.253906 192.519531 710.105469 190.378906 708.957031 188.234375 C 718.394531 183.175781 727.828125 178.117188 737.265625 173.058594 C 734.402344 162.742188 731.539062 152.425781 728.675781 142.109375 Z M 742.085938 147.84375 C 744.429688 147.191406 746.773438 146.542969 749.117188 145.890625 C 755.363281 168.398438 761.613281 190.90625 767.859375 213.414062 C 765.515625 214.066406 763.171875 214.714844 760.828125 215.367188 C 758.109375 205.578125 755.394531 195.789062 752.675781 186 C 743.722656 190.800781 734.769531 195.597656 725.8125 200.398438 C 724.664062 198.253906 723.515625 196.113281 722.367188 193.96875 C 731.804688 188.910156 741.238281 183.851562 750.675781 178.792969 C 747.8125 168.476562 744.949219 158.160156 742.085938 147.84375 Z M 762.269531 172.839844 C 772.332031 177.140625 782.394531 181.445312 792.457031 185.746094 C 791.5 187.980469 790.546875 190.21875 789.589844 192.453125 C 779.527344 188.152344 769.464844 183.847656 759.402344 179.546875 C 760.359375 177.3125 761.3125 175.074219 762.269531 172.839844 Z M 766.855469 185.3125 C 774.125 188.417969 781.390625 191.527344 788.660156 194.632812 C 787.703125 196.867188 786.75 199.105469 785.792969 201.339844 C 778.523438 198.234375 771.257812 195.125 763.988281 192.019531 C 764.945312 189.785156 765.898438 187.546875 766.855469 185.3125 Z M 766.855469 185.3125 "/>
<path style=" stroke:none;fill-rule:nonzero;fill:rgb(99.215686%,70.588235%,38.431373%);fill-opacity:1;" d="M 724.828125 132.53125 C 727.171875 131.878906 729.515625 131.230469 731.859375 130.578125 C 734.984375 141.832031 738.105469 153.085938 741.230469 164.339844 C 740.632812 165.738281 740.035156 167.132812 739.4375 168.53125 C 729.144531 174.050781 718.851562 179.566406 708.558594 185.085938 C 707.410156 182.941406 706.261719 180.800781 705.113281 178.65625 C 714.550781 173.597656 723.984375 168.539062 733.421875 163.480469 C 730.558594 153.164062 727.695312 142.847656 724.832031 132.53125 Z M 738.246094 138.265625 C 740.589844 137.613281 742.933594 136.964844 745.277344 136.3125 C 751.523438 158.820312 757.773438 181.328125 764.019531 203.835938 C 761.675781 204.488281 759.332031 205.136719 756.988281 205.789062 C 754.269531 196 751.554688 186.210938 748.835938 176.421875 C 739.882812 181.222656 730.929688 186.019531 721.972656 190.820312 C 720.824219 188.675781 719.675781 186.535156 718.527344 184.390625 C 727.964844 179.332031 737.398438 174.273438 746.835938 169.214844 C 743.972656 158.898438 741.109375 148.582031 738.246094 138.265625 Z M 758.429688 163.261719 C 768.492188 167.5625 778.554688 171.867188 788.617188 176.167969 C 787.660156 178.402344 786.707031 180.640625 785.75 182.875 C 775.6875 178.574219 765.625 174.269531 755.5625 169.96875 C 756.519531 167.734375 757.472656 165.496094 758.429688 163.261719 Z M 763.015625 175.734375 C 770.285156 178.839844 777.550781 181.949219 784.820312 185.054688 C 783.863281 187.289062 782.910156 189.527344 781.953125 191.761719 C 774.683594 188.65625 767.417969 185.546875 760.148438 182.441406 C 761.105469 180.207031 762.058594 177.96875 763.015625 175.734375 Z M 763.015625 175.734375 "/>
<path style=" stroke:none;fill-rule:nonzero;fill:rgb(0%,0%,0%);fill-opacity:1;" d="M 666.851562 7.539062 L 652.257812 9.453125 L 690.515625 301.296875 L 705.109375 299.382812 Z M 666.851562 7.539062 "/>
<path style=" stroke:none;fill-rule:nonzero;fill:rgb(0%,0%,0%);fill-opacity:1;" d="M 644.964844 10.410156 L 630.371094 12.324219 L 668.628906 304.167969 L 683.222656 302.253906 Z M 644.964844 10.410156 "/>
<path style=" stroke:none;fill-rule:nonzero;fill:rgb(0%,0%,0%);fill-opacity:1;" d="M 623.074219 13.277344 L 608.480469 15.191406 L 646.738281 307.035156 L 661.332031 305.121094 Z M 623.074219 13.277344 "/>
<path style=" stroke:none;fill-rule:nonzero;fill:rgb(100%,92.941176%,43.529412%);fill-opacity:1;" d="M 656.710938 20.742188 L 642.117188 22.65625 L 680.375 314.5 L 694.96875 312.585938 Z M 656.710938 20.742188 "/>
<path style=" stroke:none;fill-rule:nonzero;fill:rgb(100%,92.941176%,43.529412%);fill-opacity:1;" d="M 634.820312 23.613281 L 620.226562 25.527344 L 658.484375 317.371094 L 673.078125 315.457031 Z M 634.820312 23.613281 "/>
<path style=" stroke:none;fill-rule:nonzero;fill:rgb(100%,92.941176%,43.529412%);fill-opacity:1;" d="M 612.933594 26.484375 L 598.339844 28.398438 L 636.597656 320.242188 L 651.191406 318.328125 Z M 612.933594 26.484375 "/>
<path style=" stroke:none;fill-rule:nonzero;fill:rgb(0%,0%,0%);fill-opacity:1;" d="M 598.339844 134.917969 L 466.324219 121.757812 L 520.933594 242.664062 Z M 598.339844 134.917969 "/>
<path style=" stroke:none;fill-rule:nonzero;fill:rgb(74.509804%,72.941176%,85.490196%);fill-opacity:1;" d="M 573.652344 138.964844 L 441.636719 125.804688 L 496.246094 246.710938 Z M 573.652344 138.964844 "/>
<path style=" stroke:none;fill-rule:nonzero;fill:rgb(0%,0%,0%);fill-opacity:1;" d="M 242.453125 120.835938 C 224.28125 172.066406 251.078125 228.324219 302.308594 246.496094 C 353.539062 264.667969 409.796875 237.871094 427.96875 186.640625 C 446.140625 135.410156 419.34375 79.152344 368.113281 60.980469 C 316.882812 42.808594 260.625 69.605469 242.453125 120.835938 Z M 242.453125 120.835938 "/>
<path style=" stroke:none;fill-rule:nonzero;fill:rgb(73.72549%,50.196078%,74.117647%);fill-opacity:1;" d="M 250.433594 137.589844 C 232.261719 188.820312 259.058594 245.078125 310.289062 263.25 C 361.519531 281.421875 417.777344 254.625 435.949219 203.394531 C 454.121094 152.164062 427.324219 95.90625 376.09375 77.734375 C 324.863281 59.5625 268.605469 86.359375 250.433594 137.589844 Z M 250.433594 137.589844 "/>
<path style=" stroke:none;fill-rule:nonzero;fill:rgb(0%,0%,0%);fill-opacity:1;" d="M 7.539062 219.628906 L 23.734375 244.21875 L 220.445312 114.644531 L 204.25 90.054688 Z M 7.539062 219.628906 "/>
<path style=" stroke:none;fill-rule:nonzero;fill:rgb(98.431373%,50.196078%,44.705882%);fill-opacity:1;" d="M 23.855469 222.984375 L 40.050781 247.574219 L 236.761719 118 L 220.566406 93.410156 Z M 23.855469 222.984375 "/>
</g>
</svg>
