<?xml version="1.0" encoding="UTF-8"?>
<svg xmlns="http://www.w3.org/2000/svg" xmlns:xlink="http://www.w3.org/1999/xlink" width="300pt" height="165.491839pt" viewBox="0 0 300 165.491839" version="1.1">
<g id="surface1">
<path style="fill-rule:nonzero;fill:rgb(0%,0%,0%);fill-opacity:1;stroke-width:0.891269;stroke-linecap:butt;stroke-linejoin:miter;stroke:rgb(0%,0%,0%);stroke-opacity:1;stroke-miterlimit:10;" d="M 269.628906 106.628906 C 267.410156 106.921875 265.195312 107.214844 262.976562 107.511719 C 261.566406 96.863281 260.15625 86.214844 258.742188 75.570312 C 259.464844 74.375 260.1875 73.179688 260.90625 71.980469 C 270.984375 68.265625 281.0625 64.550781 291.140625 60.839844 C 291.914062 62.9375 292.6875 65.035156 293.460938 67.136719 C 284.222656 70.542969 274.984375 73.945312 265.746094 77.351562 C 267.039062 87.113281 268.332031 96.871094 269.625 106.632812 Z M 258.140625 99.695312 C 255.921875 99.988281 253.707031 100.28125 251.488281 100.578125 C 248.667969 79.28125 245.84375 57.988281 243.023438 36.691406 C 245.242188 36.398438 247.457031 36.105469 249.675781 35.808594 C 250.902344 45.070312 252.128906 54.332031 253.359375 63.59375 C 262.125 60.363281 270.890625 57.132812 279.660156 53.902344 C 280.433594 56 281.207031 58.097656 281.980469 60.199219 C 272.742188 63.605469 263.503906 67.007812 254.265625 70.414062 C 255.558594 80.175781 256.851562 89.933594 258.144531 99.695312 Z M 242.941406 74.359375 C 234.324219 69.160156 225.707031 63.957031 217.089844 58.757812 C 218.246094 56.84375 219.402344 54.929688 220.558594 53.011719 C 229.175781 58.210938 237.792969 63.414062 246.410156 68.613281 C 245.253906 70.527344 244.097656 72.441406 242.941406 74.359375 Z M 240.355469 62.414062 C 234.132812 58.660156 227.910156 54.902344 221.6875 51.148438 C 222.84375 49.234375 224 47.320312 225.15625 45.402344 C 231.378906 49.15625 237.601562 52.914062 243.824219 56.667969 C 242.667969 58.582031 241.511719 60.496094 240.355469 62.414062 Z M 240.355469 62.414062 "/>
<path style="fill-rule:nonzero;fill:rgb(100%,92.941176%,43.529412%);fill-opacity:1;stroke-width:0.891269;stroke-linecap:butt;stroke-linejoin:miter;stroke:rgb(0%,0%,0%);stroke-opacity:1;stroke-miterlimit:10;" d="M 271.90625 115.839844 C 269.6875 116.132812 267.472656 116.425781 265.253906 116.722656 C 263.84375 106.074219 262.433594 95.425781 261.019531 84.78125 C 261.742188 83.585938 262.464844 82.390625 263.183594 81.191406 C 273.261719 77.476562 283.339844 73.761719 293.417969 70.050781 C 294.191406 72.148438 294.964844 74.246094 295.738281 76.347656 C 286.5 79.753906 277.261719 83.15625 268.023438 86.5625 C 269.316406 96.324219 270.609375 106.082031 271.902344 115.84375 Z M 260.417969 108.90625 C 258.199219 109.199219 255.984375 109.492188 253.765625 109.789062 C 250.945312 88.492188 248.121094 67.199219 245.300781 45.902344 C 247.519531 45.609375 249.734375 45.316406 251.953125 45.019531 C 253.179688 54.28125 254.40625 63.542969 255.636719 72.804688 C 264.402344 69.574219 273.167969 66.34375 281.9375 63.113281 C 282.710938 65.210938 283.484375 67.308594 284.257812 69.410156 C 275.019531 72.816406 265.78125 76.21875 256.542969 79.625 C 257.835938 89.386719 259.128906 99.144531 260.421875 108.90625 Z M 245.21875 83.570312 C 236.601562 78.371094 227.984375 73.167969 219.367188 67.96875 C 220.523438 66.054688 221.679688 64.140625 222.835938 62.222656 C 231.453125 67.421875 240.070312 72.625 248.6875 77.824219 C 247.53125 79.738281 246.375 81.652344 245.21875 83.570312 Z M 242.632812 71.625 C 236.410156 67.871094 230.1875 64.113281 223.964844 60.359375 C 225.121094 58.445312 226.277344 56.53125 227.433594 54.613281 C 233.65625 58.367188 239.878906 62.125 246.101562 65.878906 C 244.945312 67.792969 243.789062 69.707031 242.632812 71.625 Z M 242.632812 71.625 "/>
<path style="fill-rule:nonzero;fill:rgb(0%,0%,0%);fill-opacity:1;stroke-width:0.891269;stroke-linecap:butt;stroke-linejoin:miter;stroke:rgb(0%,0%,0%);stroke-opacity:1;stroke-miterlimit:10;" d="M 191.066406 161.234375 L 197.378906 155.886719 L 90.449219 29.621094 L 84.136719 34.96875 Z M 191.066406 161.234375 "/>
<path style="fill-rule:nonzero;fill:rgb(0%,0%,0%);fill-opacity:1;stroke-width:0.891269;stroke-linecap:butt;stroke-linejoin:miter;stroke:rgb(0%,0%,0%);stroke-opacity:1;stroke-miterlimit:10;" d="M 200.535156 153.214844 L 206.847656 147.867188 L 99.917969 21.601562 L 93.605469 26.949219 Z M 200.535156 153.214844 "/>
<path style="fill-rule:nonzero;fill:rgb(0%,0%,0%);fill-opacity:1;stroke-width:0.891269;stroke-linecap:butt;stroke-linejoin:miter;stroke:rgb(0%,0%,0%);stroke-opacity:1;stroke-miterlimit:10;" d="M 210.003906 145.195312 L 216.316406 139.847656 L 109.386719 13.582031 L 103.074219 18.929688 Z M 210.003906 145.195312 "/>
<path style="fill-rule:nonzero;fill:rgb(55.294118%,82.745098%,78.039216%);fill-opacity:1;stroke-width:0.891269;stroke-linecap:butt;stroke-linejoin:miter;stroke:rgb(0%,0%,0%);stroke-opacity:1;stroke-miterlimit:10;" d="M 191.839844 151.90625 L 198.152344 146.558594 L 91.222656 20.292969 L 84.910156 25.640625 Z M 191.839844 151.90625 "/>
<path style="fill-rule:nonzero;fill:rgb(55.294118%,82.745098%,78.039216%);fill-opacity:1;stroke-width:0.891269;stroke-linecap:butt;stroke-linejoin:miter;stroke:rgb(0%,0%,0%);stroke-opacity:1;stroke-miterlimit:10;" d="M 201.308594 143.886719 L 207.621094 138.539062 L 100.691406 12.273438 L 94.378906 17.621094 Z M 201.308594 143.886719 "/>
<path style="fill-rule:nonzero;fill:rgb(55.294118%,82.745098%,78.039216%);fill-opacity:1;stroke-width:0.891269;stroke-linecap:butt;stroke-linejoin:miter;stroke:rgb(0%,0%,0%);stroke-opacity:1;stroke-miterlimit:10;" d="M 210.777344 135.867188 L 217.089844 130.519531 L 110.160156 4.253906 L 103.847656 9.601562 Z M 210.777344 135.867188 "/>
<path style="fill-rule:nonzero;fill:rgb(0%,0%,0%);fill-opacity:1;stroke-width:0.891269;stroke-linecap:butt;stroke-linejoin:miter;stroke:rgb(0%,0%,0%);stroke-opacity:1;stroke-miterlimit:10;" d="M 56.519531 56.570312 L 57.746094 84.964844 L 81.722656 69.707031 Z M 56.519531 56.570312 "/>
<path style="fill-rule:nonzero;fill:rgb(73.72549%,50.196078%,74.117647%);fill-opacity:1;stroke-width:0.891269;stroke-linecap:butt;stroke-linejoin:miter;stroke:rgb(0%,0%,0%);stroke-opacity:1;stroke-miterlimit:10;" d="M 58.933594 64.238281 L 60.160156 92.632812 L 84.136719 77.375 Z M 58.933594 64.238281 "/>
<path style="fill-rule:nonzero;fill:rgb(0%,0%,0%);fill-opacity:1;stroke-width:0.891269;stroke-linecap:butt;stroke-linejoin:miter;stroke:rgb(0%,0%,0%);stroke-opacity:1;stroke-miterlimit:10;" d="M 38.890625 105.820312 C 51.792969 100.613281 58.035156 85.929688 52.828125 73.027344 C 47.621094 60.125 32.9375 53.882812 20.035156 59.089844 C 7.132812 64.296875 0.890625 78.980469 6.097656 91.882812 C 11.304688 104.785156 25.988281 111.027344 38.890625 105.820312 Z M 38.890625 105.820312 "/>
<path style="fill-rule:nonzero;fill:rgb(50.196078%,69.411765%,82.745098%);fill-opacity:1;stroke-width:0.891269;stroke-linecap:butt;stroke-linejoin:miter;stroke:rgb(0%,0%,0%);stroke-opacity:1;stroke-miterlimit:10;" d="M 40.746094 101.445312 C 53.648438 96.238281 59.890625 81.554688 54.683594 68.652344 C 49.476562 55.75 34.792969 49.507812 21.890625 54.714844 C 8.988281 59.921875 2.746094 74.605469 7.953125 87.507812 C 13.160156 100.410156 27.84375 106.652344 40.746094 101.445312 Z M 40.746094 101.445312 "/>
</g>
</svg>
